<svg xmlns="http://www.w3.org/2000/svg" xmlns:xlink="http://www.w3.org/1999/xlink" width="1080" height="1080" viewBox="0 0 1080 1080">
  <defs>
    <style>
      path {
        fill: #1b1641;
      }
      @media (prefers-color-scheme: dark) {
        path {
          fill: #fff;
        }
      }
    </style>
  </defs>
    <path d="M-15467,1080a548.607,548.607,0,0,1-55.211-2.788,541.315,541.315,0,0,1-53.616-8.183c-17.4-3.56-34.808-8.036-51.751-13.306-16.753-5.211-33.444-11.32-49.612-18.158-16.021-6.776-31.9-14.427-47.2-22.739-15.193-8.253-30.173-17.354-44.522-27.048-14.281-9.648-28.268-20.107-41.571-31.086-13.271-10.951-26.172-22.677-38.348-34.853s-23.9-25.079-34.853-38.347c-10.979-13.3-21.438-27.291-31.087-41.571-9.7-14.353-18.8-29.332-27.048-44.523-8.312-15.3-15.963-31.184-22.739-47.2-6.838-16.166-12.947-32.858-18.159-49.613-5.269-16.938-9.745-34.349-13.307-51.751a541.329,541.329,0,0,1-8.183-53.617A548.891,548.891,0,0,1-16007,540a548.89,548.89,0,0,1,2.788-55.212,541.349,541.349,0,0,1,8.183-53.617c3.562-17.4,8.038-34.813,13.307-51.751,5.212-16.756,11.321-33.448,18.159-49.613,6.776-16.02,14.427-31.9,22.739-47.2,8.252-15.191,17.353-30.171,27.048-44.523,9.649-14.281,20.108-28.268,31.087-41.571,10.95-13.269,22.677-26.171,34.853-38.347s25.077-23.9,38.348-34.853c13.3-10.98,27.291-21.439,41.571-31.086,14.348-9.694,29.328-18.794,44.522-27.049,15.3-8.312,31.184-15.963,47.2-22.739,16.168-6.838,32.859-12.948,49.612-18.158,16.943-5.27,34.355-9.747,51.751-13.306a541.225,541.225,0,0,1,53.616-8.183A548.6,548.6,0,0,1-15467,0a548.619,548.619,0,0,1,55.212,2.788,541.293,541.293,0,0,1,53.617,8.183c17.4,3.559,34.808,8.036,51.751,13.306,16.753,5.211,33.445,11.32,49.612,18.158,16.02,6.775,31.9,14.426,47.205,22.739,15.194,8.255,30.174,17.355,44.522,27.049,14.283,9.65,28.27,20.109,41.571,31.086,13.27,10.951,26.172,22.677,38.348,34.853s23.9,25.072,34.853,38.347c10.979,13.305,21.438,27.292,31.086,41.571,9.694,14.351,18.795,29.331,27.048,44.523,8.313,15.3,15.963,31.184,22.739,47.2,6.839,16.168,12.948,32.86,18.158,49.613,5.271,16.948,9.748,34.359,13.307,51.751a541.385,541.385,0,0,1,8.183,53.617A548.6,548.6,0,0,1-14927,540a547.732,547.732,0,0,1-3.823,64.594A540.121,540.121,0,0,1-14942,666.93a538.248,538.248,0,0,1-18.094,59.64,538.974,538.974,0,0,1-24.574,56.506,541.426,541.426,0,0,1-66.834,101.86,543.935,543.935,0,0,1-87.5,84.074V541.792c.008-.518.008-1.047.008-1.559a329.275,329.275,0,0,0-6.664-65.987,325.3,325.3,0,0,0-19.111-61.46,327.239,327.239,0,0,0-30.241-55.617,329.854,329.854,0,0,0-40.052-48.456,330.187,330.187,0,0,0-48.541-39.98,328.309,328.309,0,0,0-55.715-30.187,326.8,326.8,0,0,0-61.568-19.078,330.979,330.979,0,0,0-66.1-6.652,331.069,331.069,0,0,0-65.267,6.482,326.812,326.812,0,0,0-60.864,18.6,328.1,328.1,0,0,0-55.192,29.457,330.1,330.1,0,0,0-48.258,39.046,329.924,329.924,0,0,0-40.053,47.369,327.481,327.481,0,0,0-30.583,54.427,325.477,325.477,0,0,0-19.844,60.218,328.526,328.526,0,0,0-7.838,64.743c-.013.695-.025,1.257-.04,1.824,0,.3-.013.618-.021.939l0,.084c-.009.335-.019.681-.021,1.021,0-.209.008-.423.014-.63l0-.094,0-.131q.006-.161.009-.322l-.009.567c-.02,1.172-.041,2.5-.041,3.813a328.354,328.354,0,0,0,6.664,65.893,324.521,324.521,0,0,0,19.113,61.373,326.608,326.608,0,0,0,30.242,55.537,329.451,329.451,0,0,0,40.053,48.387,330.115,330.115,0,0,0,48.544,39.923,328.392,328.392,0,0,0,55.715,30.144,327.122,327.122,0,0,0,61.569,19.05,331.45,331.45,0,0,0,66.1,6.642,329.714,329.714,0,0,0,88.048-11.913,326.727,326.727,0,0,0,78.988-33.606v232A539.6,539.6,0,0,1-15467,1080Zm.009-373.032a168.589,168.589,0,0,1-33.667-3.388,166.41,166.41,0,0,1-31.357-9.715,167.2,167.2,0,0,1-28.376-15.373,168.273,168.273,0,0,1-24.722-20.36,168.069,168.069,0,0,1-20.4-24.676,166.753,166.753,0,0,1-15.4-28.322,165.648,165.648,0,0,1-9.732-31.3,167.657,167.657,0,0,1-3.394-33.6,167.688,167.688,0,0,1,3.394-33.607,165.669,165.669,0,0,1,9.732-31.3,166.748,166.748,0,0,1,15.4-28.325,168.036,168.036,0,0,1,20.4-24.679,168.258,168.258,0,0,1,24.722-20.362,167.176,167.176,0,0,1,28.376-15.374,166.4,166.4,0,0,1,31.357-9.716,168.571,168.571,0,0,1,33.667-3.388,168.568,168.568,0,0,1,33.665,3.388,166.414,166.414,0,0,1,31.355,9.716,167.178,167.178,0,0,1,28.375,15.374,168.249,168.249,0,0,1,24.723,20.361,168.035,168.035,0,0,1,20.4,24.678,166.623,166.623,0,0,1,15.4,28.324,165.742,165.742,0,0,1,9.733,31.3,167.678,167.678,0,0,1,3.394,33.605h-.008v1.739a167.449,167.449,0,0,1-3.685,33.3,165.689,165.689,0,0,1-9.916,30.994,166.746,166.746,0,0,1-15.488,28.03,168.11,168.11,0,0,1-20.4,24.409,168.167,168.167,0,0,1-24.654,20.13,167.116,167.116,0,0,1-28.249,15.193,166.421,166.421,0,0,1-31.184,9.6A168.589,168.589,0,0,1-15466.993,706.968Z" transform="translate(16007)"/>
</svg>
