<?xml version="1.0" standalone="no"?>
<!DOCTYPE svg PUBLIC "-//W3C//DTD SVG 20010904//EN"
 "http://www.w3.org/TR/2001/REC-SVG-20010904/DTD/svg10.dtd">
<svg version="1.0" xmlns="http://www.w3.org/2000/svg"
 width="1080.000000pt" height="1080.000000pt" viewBox="0 0 1080.000000 1080.000000"
 preserveAspectRatio="xMidYMid meet">
<metadata>
Created by potrace 1.14, written by Peter Selinger 2001-2017
</metadata>
<g transform="translate(0.000000,1080.000000) scale(0.100000,-0.100000)"
fill="#000000" stroke="none">
<path d="M5128 10795 c-2 -2 -55 -6 -119 -9 -64 -4 -125 -8 -136 -10 -10 -2
-49 -7 -85 -10 -37 -4 -75 -8 -85 -10 -10 -2 -39 -6 -64 -10 -25 -4 -57 -9
-70 -11 -13 -2 -42 -6 -64 -9 -201 -29 -581 -124 -827 -207 -109 -36 -361
-135 -473 -185 -22 -10 -42 -18 -45 -19 -3 0 -66 -32 -140 -69 -74 -38 -156
-79 -182 -92 -131 -66 -461 -275 -636 -403 -97 -71 -317 -247 -382 -305 -247
-223 -696 -716 -758 -833 -7 -12 -19 -28 -28 -37 -28 -29 -239 -349 -306 -466
-139 -243 -249 -467 -335 -685 -19 -49 -41 -103 -48 -120 -36 -83 -161 -484
-190 -614 -12 -51 -55 -251 -59 -276 -3 -16 -8 -41 -11 -55 -3 -14 -7 -43 -10
-65 -3 -22 -8 -51 -10 -65 -3 -14 -8 -41 -10 -60 -3 -19 -7 -48 -9 -65 -3 -16
-7 -59 -11 -95 -4 -36 -8 -76 -11 -90 -26 -160 -25 -822 1 -1040 2 -19 6 -62
10 -94 3 -33 8 -73 10 -90 37 -236 51 -322 59 -361 3 -11 12 -54 21 -95 111
-516 325 -1068 596 -1538 117 -202 368 -569 463 -679 17 -19 33 -39 89 -106
95 -115 390 -419 522 -538 580 -522 1290 -921 2057 -1154 48 -14 95 -28 105
-30 10 -2 61 -15 113 -29 129 -34 257 -61 435 -90 190 -31 215 -35 284 -42 31
-2 72 -7 91 -9 211 -27 829 -27 1040 -1 19 3 58 7 85 10 53 5 312 42 355 51
14 3 48 9 75 15 173 33 350 76 500 121 55 17 108 33 118 35 16 5 17 69 17
1164 l0 1160 -132 -70 c-73 -38 -180 -90 -238 -115 -230 -101 -571 -198 -810
-230 -25 -3 -56 -8 -70 -10 -30 -5 -140 -15 -206 -20 -71 -6 -385 -6 -414 -1
-14 3 -63 7 -110 11 -94 7 -116 10 -240 31 -541 91 -1036 309 -1470 648 -313
243 -593 560 -797 901 -137 228 -244 469 -322 722 -21 70 -42 145 -45 167 -4
21 -9 42 -11 47 -7 10 -43 206 -51 269 -3 25 -7 56 -10 70 -11 60 -19 229 -19
405 0 247 13 390 51 590 9 44 17 89 19 100 13 82 84 317 142 470 195 516 502
946 959 1345 51 45 263 200 327 240 375 235 814 409 1172 466 21 3 47 8 59 10
11 2 41 7 66 10 25 3 56 7 70 10 159 26 703 25 840 -1 10 -2 35 -6 56 -9 173
-27 445 -90 499 -115 11 -5 45 -17 75 -27 305 -95 711 -315 975 -529 331 -267
618 -601 817 -950 50 -88 158 -309 187 -383 98 -249 157 -465 205 -752 5 -25
11 -79 26 -220 4 -41 8 -1080 9 -2309 1 -1229 2 -2236 4 -2237 3 -4 201 158
292 239 85 75 383 371 450 447 52 57 192 226 225 269 134 179 228 311 296 418
347 545 588 1123 724 1733 35 154 81 431 95 565 4 33 8 76 10 95 31 271 25
887 -9 1125 -3 17 -8 57 -12 90 -3 33 -8 67 -9 75 -7 38 -16 98 -20 125 -2 17
-6 39 -8 50 -3 11 -8 40 -12 65 -4 25 -9 52 -11 60 -1 8 -10 47 -18 85 -40
178 -88 356 -146 533 -48 145 -139 385 -183 482 -177 392 -384 745 -632 1074
-62 83 -125 165 -140 181 -14 17 -70 81 -123 142 -118 137 -389 406 -532 528
-574 491 -1251 862 -1972 1080 -48 14 -95 28 -105 30 -10 2 -52 13 -94 24 -97
27 -181 45 -349 77 -157 28 -174 31 -300 49 -35 5 -190 22 -285 31 -55 5 -682
13 -687 9z"/>
<path d="M5338 7065 c-2 -2 -42 -5 -89 -9 -405 -28 -796 -223 -1094 -547 -196
-212 -356 -542 -401 -824 -2 -16 -7 -46 -10 -65 -12 -74 -11 -366 1 -445 34
-210 69 -330 148 -495 128 -269 336 -509 577 -666 108 -70 109 -71 170 -100
151 -73 313 -129 430 -150 148 -26 229 -33 365 -29 83 2 161 6 175 9 14 2 55
9 91 15 308 51 634 220 868 451 335 331 506 749 496 1215 -4 184 -8 218 -36
335 -11 47 -22 92 -24 100 -31 141 -161 395 -289 565 -98 131 -300 308 -458
404 -166 100 -392 185 -548 207 -19 2 -44 6 -55 9 -58 12 -308 27 -317 20z"/>
</g>
</svg>
