<svg xmlns="http://www.w3.org/2000/svg" width="56" height="56" viewBox="0 0 56 56"><g transform="translate(-241.286 -241.286)"><g transform="translate(241.286 241.286)"><path d="M269.286,297.286a28,28,0,1,1,19.8-8.2A27.817,27.817,0,0,1,269.286,297.286Zm0-52.148a24.149,24.149,0,1,0,24.149,24.148A24.176,24.176,0,0,0,269.286,245.138Z" transform="translate(-241.286 -241.286)" fill="#f0f600"/></g><path d="M401.928,356.8a1.856,1.856,0,0,1,3.708.115v5.152h0v2.319a.314.314,0,0,0,.628,0v-10.13h0v-1.473a1.857,1.857,0,1,1,3.714,0v1.688a.314.314,0,0,0-.012.082v10.13a.314.314,0,0,0,.628,0v-2.615h.012v-10.8a1.857,1.857,0,0,1,3.714,0v3.166a.311.311,0,0,0-.024.121v10.13a.314.314,0,1,0,.628,0v-2.615h.024v-7.82a1.857,1.857,0,0,1,3.714,0v14.576c.371,3.23,1.875,1.4,3.975-.375a8.247,8.247,0,0,1,1.136-.82,2.4,2.4,0,0,1,2.009-.408,1.819,1.819,0,0,1,.926,2.319,9.729,9.729,0,0,1-2.331,3.437c-.561.6-1.076,1.25-1.635,1.853-.537.579-1.029,1.178-1.593,1.728-1.016.991-1.564,1.382-2.23,1.981a14.2,14.2,0,0,1-4.168,2.642,9.5,9.5,0,0,1-3.743.607,10.789,10.789,0,0,1-1.13-.042c-.016,0-.161-.026-.274-.041l-.132-.01h0a8.381,8.381,0,0,1-7.57-8.341V357.126A1.868,1.868,0,0,1,401.928,356.8Z" transform="translate(-143.229 -96.423)" fill="#f0f600"/></g></svg>