<svg xmlns="http://www.w3.org/2000/svg" xmlns:xlink="http://www.w3.org/1999/xlink" width="32" height="32" viewBox="0 0 32 32"><defs><clipPath id="a"><rect width="32" height="32" rx="16" transform="translate(24 246.123)" fill="#fff"/></clipPath></defs><g transform="translate(-24 -246.123)" clip-path="url(#a)"><g transform="translate(24.186 246.719)"><path d="M15.7,0A15.7,15.7,0,1,1,0,15.7,15.7,15.7,0,0,1,15.7,0Z" fill="#8f5ae8"/><path d="M72.16,75.953a1.411,1.411,0,0,0-1.329,0l-3,1.772-2.094,1.163-3,1.773a1.411,1.411,0,0,1-1.329,0l-2.381-1.386a1.329,1.329,0,0,1-.665-1.108V75.4a1.218,1.218,0,0,1,.665-1.108l2.381-1.329a1.41,1.41,0,0,1,1.329,0l2.381,1.329a1.329,1.329,0,0,1,.665,1.108v1.772l2.044-1.218V74.236a1.218,1.218,0,0,0-.654-1.108L62.8,70.58a1.411,1.411,0,0,0-1.329,0L57.04,73.128a1.129,1.129,0,0,0-.72,1.108v5.15a1.218,1.218,0,0,0,.665,1.1l4.431,2.553a1.411,1.411,0,0,0,1.329,0l3-1.717,2.049-1.218L70.776,78.4a1.411,1.411,0,0,1,1.329,0l2.381,1.329a1.329,1.329,0,0,1,.665,1.108v2.714a1.218,1.218,0,0,1-.665,1.108L72.105,86.04a1.411,1.411,0,0,1-1.329,0L68.395,84.71A1.329,1.329,0,0,1,67.73,83.6V81.824l-1.989,1.162v1.772a1.218,1.218,0,0,0,.665,1.108l4.431,2.548a1.411,1.411,0,0,0,1.329,0L76.6,85.866a1.329,1.329,0,0,0,.659-1.107V79.607a1.218,1.218,0,0,0-.665-1.108Z" transform="translate(-51.086 -63.872)" fill="#fff"/></g></g></svg>