<svg xmlns="http://www.w3.org/2000/svg" width="21.319" height="24" viewBox="0 0 21.319 24"><path d="M124.656,114.132V112.3a1.808,1.808,0,0,1,.069-.618,1.219,1.219,0,0,1,2.306,0,1.8,1.8,0,0,1,.069.618v2.831a2.336,2.336,0,0,1-.034.5,1.255,1.255,0,0,1-.912.909,2.366,2.366,0,0,1-.5.034h-2.839a1.82,1.82,0,0,1-.62-.069,1.213,1.213,0,0,1,0-2.3,1.82,1.82,0,0,1,.62-.069Zm10.118,12.832H119.546V113.591a.6.6,0,0,1,.181-.438l3.949-3.937a.6.6,0,0,1,.439-.18h10.659Zm1.729-20.947a3.232,3.232,0,0,0-.379-.017H123.71c-.137,0-.275.009-.37.017a2.4,2.4,0,0,0-1.48.721l-4.62,4.606a2.389,2.389,0,0,0-.723,1.475c-.009.094-.017.232-.017.369V128.31a3.156,3.156,0,0,0,.017.377,1.53,1.53,0,0,0,1.3,1.3,3.189,3.189,0,0,0,.379.017h17.929a3.187,3.187,0,0,0,.379-.017,1.531,1.531,0,0,0,1.3-1.3,3.236,3.236,0,0,0,.017-.377V107.69a3.237,3.237,0,0,0-.017-.377A1.531,1.531,0,0,0,136.5,106.017Z" transform="translate(-116.5 -106)" fill-rule="evenodd"/></svg>
