<svg xmlns="http://www.w3.org/2000/svg" width="25.135" height="26.368" viewBox="0 0 25.135 26.368"><defs><style>.a{fill-rule:evenodd;}</style></defs><g transform="translate(-1459.433 -45.816)"><path class="a" d="M4601.4,379.315a12.686,12.686,0,0,0-4.884,0l-.753,2.249a10.685,10.685,0,0,0-4.038,2.331l-2.325-.472a12.685,12.685,0,0,0-2.441,4.23l1.571,1.777a10.668,10.668,0,0,0,0,4.662l-1.571,1.777a12.686,12.686,0,0,0,2.441,4.229l2.325-.472a10.685,10.685,0,0,0,4.038,2.331l.753,2.249a12.685,12.685,0,0,0,4.884,0l.753-2.249a10.69,10.69,0,0,0,4.038-2.331l2.325.472a12.687,12.687,0,0,0,2.442-4.229l-1.571-1.777a10.7,10.7,0,0,0,0-4.662l1.571-1.777a12.686,12.686,0,0,0-2.442-4.23l-2.325.472a10.691,10.691,0,0,0-4.038-2.331Zm-2.442,4.543a7.9,7.9,0,1,1-7.9,7.9A7.907,7.907,0,0,1,4598.96,383.858Z" transform="translate(-3126.96 -332.762)"/><path class="b" d="M4598.959,378.578a13.218,13.218,0,0,1,2.539.247l.286.056.766,2.287a11.28,11.28,0,0,1,3.791,2.188l2.363-.48.191.219a13.124,13.124,0,0,1,2.538,4.4l.094.275-1.6,1.807a11.283,11.283,0,0,1,0,4.377l1.6,1.807-.094.275a13.123,13.123,0,0,1-2.538,4.4l-.191.219-2.363-.48a11.277,11.277,0,0,1-3.791,2.188l-.766,2.287-.286.056a13.185,13.185,0,0,1-5.077,0l-.286-.056-.766-2.287a11.268,11.268,0,0,1-3.791-2.188l-2.364.48-.191-.219a13.127,13.127,0,0,1-2.538-4.4l-.094-.275,1.6-1.807a11.247,11.247,0,0,1,0-4.377l-1.6-1.807.094-.275a13.127,13.127,0,0,1,2.538-4.4l.191-.219,2.364.48a11.27,11.27,0,0,1,3.791-2.188l.766-2.287.286-.056A13.217,13.217,0,0,1,4598.959,378.578Zm2.062,1.176a12.235,12.235,0,0,0-4.124,0l-.741,2.212-.244.076a10.253,10.253,0,0,0-3.849,2.222l-.188.173-2.286-.464a12.107,12.107,0,0,0-2.061,3.571l1.545,1.748-.056.249a10.242,10.242,0,0,0,0,4.444l.056.249-1.545,1.748a12.106,12.106,0,0,0,2.061,3.57l2.287-.464.188.173a10.251,10.251,0,0,0,3.849,2.222l.244.076.741,2.212a12.231,12.231,0,0,0,4.124,0l.741-2.212.244-.076a10.258,10.258,0,0,0,3.849-2.222l.188-.173,2.286.464a12.12,12.12,0,0,0,2.062-3.57l-1.545-1.748.056-.249a10.275,10.275,0,0,0,0-4.444l-.056-.249,1.545-1.748a12.109,12.109,0,0,0-2.062-3.571l-2.286.464-.188-.173a10.256,10.256,0,0,0-3.849-2.222l-.244-.076Zm-2.062,3.6a8.4,8.4,0,1,1-8.4,8.4A8.413,8.413,0,0,1,4598.96,383.358Zm0,15.807a7.4,7.4,0,1,0-7.4-7.4A7.412,7.412,0,0,0,4598.96,399.165Z" transform="translate(-3126.96 -332.762)"/></g></svg>
