<svg xmlns="http://www.w3.org/2000/svg" width="23.898" height="23.313" viewBox="0 0 23.898 23.313" fill="#fff"><path d="M173.407,165.6a11.9,11.9,0,0,0-4.349-4.348,12.023,12.023,0,0,0-12,0,11.9,11.9,0,0,0-4.348,4.348,11.965,11.965,0,0,0,6.565,17.339.7.7,0,0,0,.622-.108.609.609,0,0,0,.2-.467q0-.046-.007-.84t-.009-1.384l-.357.062a4.518,4.518,0,0,1-.863.054,6.535,6.535,0,0,1-1.082-.109,2.409,2.409,0,0,1-1.042-.466,1.97,1.97,0,0,1-.684-.957l-.156-.358a3.884,3.884,0,0,0-.49-.793,2.011,2.011,0,0,0-.607-.557,1.55,1.55,0,0,1-.159-.1l-.02-.014a1.164,1.164,0,0,1-.2-.187.824.824,0,0,1-.14-.217c-.031-.073-.006-.132.077-.179a.569.569,0,0,1,.209-.057,1.4,1.4,0,0,1,.377.008l.177.027a2.267,2.267,0,0,1,.77.373,2.514,2.514,0,0,1,.754.809,2.747,2.747,0,0,0,.863.972,1.833,1.833,0,0,0,1.019.334,4.467,4.467,0,0,0,.887-.077,3.119,3.119,0,0,0,.7-.233,2.522,2.522,0,0,1,.762-1.6,10.609,10.609,0,0,1-1.594-.281,6.289,6.289,0,0,1-1.462-.607,4.191,4.191,0,0,1-1.253-1.041,5.015,5.015,0,0,1-.816-1.634,7.771,7.771,0,0,1-.319-2.334,4.539,4.539,0,0,1,1.229-3.206,4.176,4.176,0,0,1,.109-3.173,2.178,2.178,0,0,1,1.338.21,9.43,9.43,0,0,1,1.3.6c.275.166.5.307.661.421a11.231,11.231,0,0,1,5.975,0l.591-.374a8.362,8.362,0,0,1,1.431-.684,2.043,2.043,0,0,1,1.261-.171,4.144,4.144,0,0,1,.124,3.174,4.536,4.536,0,0,1,1.229,3.2,7.846,7.846,0,0,1-.319,2.341,4.794,4.794,0,0,1-.824,1.633,4.349,4.349,0,0,1-1.261,1.035,6.334,6.334,0,0,1-1.462.606,10.609,10.609,0,0,1-1.594.281,2.772,2.772,0,0,1,.808,2.209v3.283a.619.619,0,0,0,.195.466.675.675,0,0,0,.614.109,11.975,11.975,0,0,0,6.565-17.339Z" transform="translate(-151.112 -159.65)"/></svg>
