<svg xmlns="http://www.w3.org/2000/svg" width="96" height="96.001" viewBox="0 0 96 96.001"><path d="M282.252,294.534l13.142,5.93,25-18.592,14.344,10.3v-39.07H251.881v55.457ZM274.559,260.4a12.5,12.5,0,1,1-12.5,12.5A12.5,12.5,0,0,1,274.559,260.4Z" transform="translate(-245.31 -246.534)" fill="none"/><path d="M212.622,213.845v96h96v-96Zm89.429,6.571v39.07l-14.344-10.3-25,18.592-13.142-5.93-30.371,14.028V220.416Z" transform="translate(-212.622 -213.845)" fill="#fff"/><path d="M325.185,321.673a12.5,12.5,0,1,0-12.5-12.5A12.5,12.5,0,0,0,325.185,321.673Z" transform="translate(-295.936 -282.808)" fill="#fff"/></svg>