<svg xmlns="http://www.w3.org/2000/svg" xmlns:xlink="http://www.w3.org/1999/xlink" width="24.789" height="40" viewBox="0 0 24.789 40"><defs><linearGradient id="a" y1="0.5" x2="1" y2="0.5" gradientUnits="objectBoundingBox"><stop offset="0" stop-color="#595858"/><stop offset="0.014" stop-color="#646363"/><stop offset="0.066" stop-color="#888787"/><stop offset="0.124" stop-color="#a8a8a8"/><stop offset="0.188" stop-color="#c3c3c3"/><stop offset="0.26" stop-color="#d9d9d9"/><stop offset="0.344" stop-color="#eaeaea"/><stop offset="0.448" stop-color="#f6f6f6"/><stop offset="0.594" stop-color="#fdfdfd"/><stop offset="1" stop-color="#fff"/></linearGradient><linearGradient id="c" x1="0.5" y1="6.386" x2="0.5" gradientUnits="objectBoundingBox"><stop offset="0.83" stop-color="#fff"/><stop offset="0.899" stop-color="#fdfdfd"/><stop offset="0.924" stop-color="#f6f6f6"/><stop offset="0.941" stop-color="#eaeaea"/><stop offset="0.956" stop-color="#d9d9d9"/><stop offset="0.968" stop-color="#c3c3c3"/><stop offset="0.979" stop-color="#a8a8a8"/><stop offset="0.989" stop-color="#888787"/><stop offset="0.998" stop-color="#646363"/><stop offset="1" stop-color="#595858"/></linearGradient><linearGradient id="d" x1="0.5" y1="4.977" x2="0.5" gradientUnits="objectBoundingBox"><stop offset="0.591" stop-color="#fff"/><stop offset="0.757" stop-color="#fdfdfd"/><stop offset="0.817" stop-color="#f6f6f6"/><stop offset="0.859" stop-color="#eaeaea"/><stop offset="0.894" stop-color="#d9d9d9"/><stop offset="0.923" stop-color="#c3c3c3"/><stop offset="0.949" stop-color="#a8a8a8"/><stop offset="0.973" stop-color="#888787"/><stop offset="0.994" stop-color="#646363"/><stop offset="1" stop-color="#595858"/></linearGradient></defs><g transform="translate(-489.397 -115.277)"><path d="M564.4,242.273v2.381l10.432-3.506-2.1-1.677Z" transform="translate(-66.549 -110.201)" fill="url(#a)"/><path d="M564.4,264.23v2.381l13.385-4.5-2.1-1.677Z" transform="translate(-66.549 -128.804)" fill="url(#a)"/><path d="M666.685,151.912V137.919l-2.1-1.677v13.994Z" transform="translate(-155.452 -18.602)" fill="#fff"/><path d="M664.589,311.066v7.6l2.1,1.677v-9.978Z" transform="translate(-155.452 -173.104)" fill="url(#c)"/><path d="M690.8,157.207v27.92l2.1,1.677v-27.92Z" transform="translate(-178.706 -37.205)" fill="#fff"/><path d="M640.479,130.948V116.954l-2.1-1.677v13.994Z" transform="translate(-132.199 0)" fill="#fff"/><path d="M638.383,319.871v4.243l2.1,1.677v-6.624Z" transform="translate(-132.199 -180.916)" fill="url(#d)"/><path d="M489.4,165.336v27.92l2.254,1.84V166.961Z" transform="translate(0 -44.419)" fill="#fff"/><path d="M514.4,185.277V213.25l2.254,1.84V186.967Z" transform="translate(-22.183 -62.113)" fill="#fff"/><path d="M556.456,213.855l-14.805,4.982V206.967l-2.254-1.69V233.3l2.254,1.84V221.218l16.9-5.686Z" transform="translate(-44.366 -79.859)" fill="#fff"/></g></svg>
