<svg xmlns="http://www.w3.org/2000/svg" width="200" height="35.592" viewBox="0 0 200 35.592">
  <path id="パス_7" data-name="パス 7" d="M1181.486,1514.173c-8.5,0-14.215-5.852-14.215-14.564v-21.027h8.809v21.027c0,2.7.978,5.93,5.639,5.93,4.688,0,7.269-3.078,7.269-8.666v-18.291h8.751v34.951h-8.751v-1.209A15,15,0,0,1,1181.486,1514.173Z" transform="translate(-1125.871 -1478.581)" fill="#fff"/>
  <path id="パス_8" data-name="パス 8" d="M1374.516,1514.173v-35.181h8.809v1.179a14.348,14.348,0,0,1,6.848-1.589h2.94v8.692h-2.94c-2.059,0-6.848.747-6.848,7.668v19.231Z" transform="translate(-1296.616 -1478.581)" fill="#fff"/>
  <path id="パス_9" data-name="パス 9" d="M1519.3,1514.173a17.917,17.917,0,0,1-12.664-5.113,17.954,17.954,0,0,1,0-25.365,18.177,18.177,0,0,1,25.281,0,17.8,17.8,0,0,1-12.617,30.475Zm0-27.109a9.314,9.314,0,1,0,9.2,9.314A9.186,9.186,0,0,0,1519.3,1487.064Z" transform="translate(-1401.142 -1478.581)" fill="#fff"/>
  <path id="パス_10" data-name="パス 10" d="M1737.35,1514.173v-35.181h8.81v1.179a14.346,14.346,0,0,1,6.847-1.589h2.94v8.692h-2.94c-2.059,0-6.847.747-6.847,7.668v19.231Z" transform="translate(-1595.549 -1478.581)" fill="#fff"/>
  <rect id="長方形_9" data-name="長方形 9" width="8.739" height="17.784" transform="translate(26.877 17.808)" fill="#fff"/>
  <path id="パス_11" data-name="パス 11" d="M967.814,1496.389a17.807,17.807,0,0,0-35.61-.384c0,.033,0,.066,0,.1s0,.074,0,.111c0-.028,0-.056,0-.084,0,.086,0,.172,0,.258a17.808,17.808,0,0,0,35.61.384c0-.033,0-.066,0-.1s0-.074,0-.111c0,.028,0,.056,0,.084C967.812,1496.562,967.814,1496.476,967.814,1496.389Zm-17.808,9.069a9.069,9.069,0,1,1,9.069-9.069A9.069,9.069,0,0,1,950.006,1505.458Z" transform="translate(-932.198 -1478.581)" fill="#fff"/>
  <rect id="長方形_10" data-name="長方形 10" width="8.739" height="17.784" transform="translate(191.262 17.808)" fill="#fff"/>
  <path id="パス_12" data-name="パス 12" d="M1901.19,1496.389a17.807,17.807,0,0,0-35.61-.384c0,.033,0,.066,0,.1s0,.074,0,.111c0-.028,0-.056,0-.084,0,.086,0,.172,0,.258a17.807,17.807,0,0,0,35.61.384c0-.033,0-.066,0-.1s0-.074,0-.111c0,.028,0,.056,0,.084C1901.188,1496.562,1901.19,1496.476,1901.19,1496.389Zm-17.808,9.069a9.069,9.069,0,1,1,9.069-9.069A9.069,9.069,0,0,1,1883.382,1505.458Z" transform="translate(-1701.19 -1478.581)" fill="#fff"/>
</svg>
