<svg xmlns="http://www.w3.org/2000/svg" xmlns:xlink="http://www.w3.org/1999/xlink" width="141.914" height="13" viewBox="0 0 141.914 13"><defs><linearGradient id="a" x1="0.5" y1="1" x2="0.5" gradientUnits="objectBoundingBox"><stop offset="0" stop-color="#d5d5d5"/><stop offset="0.209" stop-color="#efefef"/><stop offset="0.621" stop-color="#fbfbfb"/><stop offset="1" stop-color="#fff"/></linearGradient></defs><g transform="translate(-521.371 -463.131)"><path d="M2099.786,3279.7a6.794,6.794,0,0,0,2.588-.519,6.929,6.929,0,0,0,1.954-1.214v-4.46h-2.392v.791h1.568v3.322a5.65,5.65,0,0,1-1.607.928,5.849,5.849,0,0,1-2.078.394,5.1,5.1,0,0,1-2.659-.689,4.49,4.49,0,0,1-1.7-1.849,5.922,5.922,0,0,1-.6-2.682v-.033a5.636,5.636,0,0,1,.614-2.582,4.867,4.867,0,0,1,1.675-1.87,4.542,4.542,0,0,1,2.486-.72,5.212,5.212,0,0,1,3.718,1.388l.561-.645a6.059,6.059,0,0,0-4.229-1.518,5.549,5.549,0,0,0-3.016.856,5.708,5.708,0,0,0-1.984,2.185,6.356,6.356,0,0,0-.714,2.938v.033a6.493,6.493,0,0,0,.7,2.987,5.339,5.339,0,0,0,1.988,2.14A5.991,5.991,0,0,0,2099.786,3279.7Z" transform="translate(-1498.994 -2804.073)" fill-rule="evenodd" fill="url(#a)"/><path d="M2099.787,3280.2h-.007a6.509,6.509,0,0,1-3.387-.892,5.857,5.857,0,0,1-2.171-2.337,7.015,7.015,0,0,1-.751-3.214v-.035a6.883,6.883,0,0,1,.771-3.169,6.229,6.229,0,0,1,2.156-2.373,6.065,6.065,0,0,1,3.282-.937h.009a6.556,6.556,0,0,1,4.552,1.637l.383.328-1.229,1.411-.378-.345a4.712,4.712,0,0,0-3.38-1.257,4.068,4.068,0,0,0-2.213.638,4.393,4.393,0,0,0-1.505,1.681,5.167,5.167,0,0,0-.558,2.356v.03a5.456,5.456,0,0,0,.545,2.457,3.967,3.967,0,0,0,1.514,1.648,4.628,4.628,0,0,0,2.4.616,5.376,5.376,0,0,0,1.9-.36,5.44,5.44,0,0,0,1.29-.7V3274.8h-1.568v-1.791h3.392v5.181l-.164.149a7.454,7.454,0,0,1-2.094,1.3,7.319,7.319,0,0,1-2.776.56Z" transform="translate(-1498.994 -2804.073)" fill="#fff"/><path d="M2205.694,3272.371v-3.405h.879v3.405Zm-8.477,8.459v-11.864h.879v5.492h8.477v6.372h-.879v-5.561h-7.6v5.561Z" transform="translate(-1675.346 -2805.245)" fill-rule="evenodd" fill="url(#a)"/><path d="M2196.717,3268.465h1.879v5.492h8.477v7.372h-1.879v-5.561h-6.6v5.561h-1.879Zm8.477,0h1.879v4.405h-1.879Z" transform="translate(-1675.346 -2805.245)" fill="#fff"/><path d="M2596.045,3268.966h-.834v11.949h.834v-11.949Zm10.433,11.949v-11.949h-.834l-4.748,7.066v1.383l4.731-6.88v10.38Z" transform="translate(-1943.693 -2805.335)" fill-rule="evenodd" fill="url(#a)"/><path d="M2594.711,3268.466h1.834v12.949h-1.834Zm10.666,0h1.6v12.949h-1.852v-9.271l-4.731,6.88v-3.145Z" transform="translate(-1943.693 -2805.335)" fill="#fff"/><path d="M2807.15,3279.619a5.623,5.623,0,0,0,5.061-3,6.2,6.2,0,0,0,.728-2.931v-.033a6.211,6.211,0,0,0-.719-2.923,5.61,5.61,0,0,0-2-2.146,5.738,5.738,0,0,0-8.1,2.17,6.218,6.218,0,0,0-.728,2.932v.032a6.21,6.21,0,0,0,.719,2.923,5.614,5.614,0,0,0,2,2.146A5.725,5.725,0,0,0,2807.15,3279.619Zm.033-.769a4.769,4.769,0,0,1-2.533-.709,4.9,4.9,0,0,1-1.731-1.857,5.48,5.48,0,0,1-.641-2.6v-.033a5.493,5.493,0,0,1,.633-2.592,4.818,4.818,0,0,1,1.715-1.842,4.888,4.888,0,0,1,5.058.008,4.91,4.91,0,0,1,1.731,1.857,5.492,5.492,0,0,1,.641,2.6v.032a5.486,5.486,0,0,1-.633,2.593,4.82,4.82,0,0,1-1.715,1.842A4.767,4.767,0,0,1,2807.183,3278.85Z" transform="translate(-2261.93 -2804.031)" fill-rule="evenodd" fill="url(#a)"/><path d="M2807.15,3280.119h-.007a6.241,6.241,0,0,1-3.3-.911,6.133,6.133,0,0,1-2.174-2.334,6.733,6.733,0,0,1-.778-3.155v-.036a6.747,6.747,0,0,1,.787-3.167,6.123,6.123,0,0,1,5.5-3.269h.013a6.238,6.238,0,0,1,3.3.911,6.129,6.129,0,0,1,2.174,2.334,6.734,6.734,0,0,1,.778,3.155v.036a6.731,6.731,0,0,1-.787,3.167,6.123,6.123,0,0,1-5.5,3.269Zm0-11.1a4.3,4.3,0,0,0-2.26.625,4.345,4.345,0,0,0-1.54,1.654,5.023,5.023,0,0,0-.573,2.36v.029a5.007,5.007,0,0,0,.581,2.363,4.43,4.43,0,0,0,1.557,1.672,4.392,4.392,0,0,0,4.527.008,4.347,4.347,0,0,0,1.54-1.654,5.017,5.017,0,0,0,.573-2.361v-.028a5.018,5.018,0,0,0-.581-2.364,4.44,4.44,0,0,0-1.557-1.671A4.305,4.305,0,0,0,2807.15,3269.014Z" transform="translate(-2261.93 -2804.031)" fill="#fff"/><path d="M3111.013,3275.117h.123a4.1,4.1,0,0,0,2.473-.714,2.412,2.412,0,0,0,.985-2v-.034a2.293,2.293,0,0,0-.9-1.895,4.076,4.076,0,0,0-2.511-.7h-4.052v11.048h-.879v-11.859h4.981a5.759,5.759,0,0,1,1.95.317,3.746,3.746,0,0,1,1.39.851,3.042,3.042,0,0,1,.657.994,3.186,3.186,0,0,1,.239,1.21v.034a3.047,3.047,0,0,1-.987,2.336,4.546,4.546,0,0,1-2.486,1.052l3.913,5.066H3114.8l-3.78-4.914Z" transform="translate(-2492.699 -2805.246)" fill-rule="evenodd" fill="url(#a)"/><path d="M3116.932,3281.325h-2.381l-4.033-5.243-.008-1.466h.626a3.634,3.634,0,0,0,2.176-.616,1.92,1.92,0,0,0,.782-1.6v-.028a1.8,1.8,0,0,0-.7-1.5,3.624,3.624,0,0,0-2.208-.594h-3.548v11.048h-1.879v-12.859h5.481a6.282,6.282,0,0,1,2.121.347,4.261,4.261,0,0,1,1.572.967,3.561,3.561,0,0,1,.766,1.156,3.7,3.7,0,0,1,.277,1.4v.047a3.54,3.54,0,0,1-1.155,2.7,4.717,4.717,0,0,1-1.929,1.01Z" transform="translate(-2492.699 -2805.246)" fill="#fff"/><path d="M3197.355,1671.167l-1.084,2.375Zm-2.426,3.325,5.53-11.958h.848l5.53,11.958h-.967l-1.51-3.325h-2.909l-.361-.8h2.879l-3.121-6.873-3.138,6.873-.354.8-1.079,2.375-.431.95Z" transform="translate(-2563.512 -1198.862)" fill-rule="evenodd" fill="url(#a)"/><path d="M3207.618,1674.992h-2.071l-1.51-3.325h-2.909l-.816-1.8h2.879l-2.346-5.166-2.682,5.874-.357.8-1.64,3.612h-2.02l5.992-12.958h1.487l.134.29Z" transform="translate(-2563.512 -1198.862)" fill="#fff"/><path d="M1433.648,1676.64h7.853v-.812h-6.973v-11.061h-.88Z" transform="translate(-874.464 -1201.052)" fill-rule="evenodd" fill="url(#a)"/><path d="M1442,1677.14h-8.853v-12.873h1.88v11.061H1442Z" transform="translate(-874.464 -1201.052)" fill="#fff"/><path d="M2807.15,3279.619a5.623,5.623,0,0,0,5.061-3,6.2,6.2,0,0,0,.728-2.931v-.033a6.211,6.211,0,0,0-.719-2.923,5.61,5.61,0,0,0-2-2.146,5.738,5.738,0,0,0-8.1,2.17,6.218,6.218,0,0,0-.728,2.932v.032a6.21,6.21,0,0,0,.719,2.923,5.614,5.614,0,0,0,2,2.146A5.725,5.725,0,0,0,2807.15,3279.619Zm.033-.769a4.769,4.769,0,0,1-2.533-.709,4.9,4.9,0,0,1-1.731-1.857,5.48,5.48,0,0,1-.641-2.6v-.033a5.493,5.493,0,0,1,.633-2.592,4.818,4.818,0,0,1,1.715-1.842,4.888,4.888,0,0,1,5.058.008,4.91,4.91,0,0,1,1.731,1.857,5.492,5.492,0,0,1,.641,2.6v.032a5.486,5.486,0,0,1-.633,2.593,4.82,4.82,0,0,1-1.715,1.842A4.767,4.767,0,0,1,2807.183,3278.85Z" transform="translate(-2226.136 -2804.031)" fill-rule="evenodd" fill="url(#a)"/><path d="M2807.15,3280.119h-.007a6.241,6.241,0,0,1-3.3-.911,6.133,6.133,0,0,1-2.174-2.334,6.733,6.733,0,0,1-.778-3.155v-.036a6.747,6.747,0,0,1,.787-3.167,6.123,6.123,0,0,1,5.5-3.269h.013a6.238,6.238,0,0,1,3.3.911,6.129,6.129,0,0,1,2.174,2.334,6.734,6.734,0,0,1,.778,3.155v.036a6.731,6.731,0,0,1-.787,3.167,6.123,6.123,0,0,1-5.5,3.269Zm0-11.1a4.3,4.3,0,0,0-2.26.625,4.345,4.345,0,0,0-1.54,1.654,5.023,5.023,0,0,0-.573,2.36v.029a5.007,5.007,0,0,0,.581,2.363,4.43,4.43,0,0,0,1.557,1.672,4.392,4.392,0,0,0,4.527.008,4.347,4.347,0,0,0,1.54-1.654,5.017,5.017,0,0,0,.573-2.361v-.028a5.018,5.018,0,0,0-.581-2.364,4.44,4.44,0,0,0-1.557-1.671A4.305,4.305,0,0,0,2807.15,3269.014Z" transform="translate(-2226.136 -2804.031)" fill="#fff"/></g></svg>
