<?xml version="1.0" encoding="UTF-8"?>
<svg xmlns="http://www.w3.org/2000/svg" xmlns:xlink="http://www.w3.org/1999/xlink" width="30" height="30" viewBox="0 0 30 30" version="1.2">
<defs>
<clipPath id="clip1">
  <path d="M 0.484375 0 L 29.515625 0 L 29.515625 29.03125 L 0.484375 29.03125 Z M 0.484375 0 "/>
</clipPath>
</defs>
<g id="surface1">
<g clip-path="url(#clip1)" clip-rule="nonzero">
<path style=" stroke:none;fill-rule:nonzero;fill:rgb(10.5896%,8.628845%,25.489807%);fill-opacity:1;" d="M 15 29.03125 C 14.503906 29.03125 14.007812 29.007812 13.515625 28.957031 C 13.03125 28.90625 12.550781 28.835938 12.074219 28.738281 C 11.605469 28.640625 11.140625 28.519531 10.683594 28.378906 C 10.234375 28.238281 9.785156 28.074219 9.351562 27.890625 C 8.917969 27.710938 8.492188 27.503906 8.082031 27.28125 C 7.671875 27.058594 7.269531 26.8125 6.882812 26.554688 C 6.5 26.292969 6.125 26.011719 5.765625 25.71875 C 5.410156 25.421875 5.0625 25.109375 4.734375 24.78125 C 4.410156 24.453125 4.09375 24.105469 3.796875 23.75 C 3.503906 23.390625 3.222656 23.015625 2.964844 22.632812 C 2.703125 22.246094 2.457031 21.84375 2.234375 21.433594 C 2.011719 21.023438 1.808594 20.597656 1.625 20.167969 C 1.441406 19.730469 1.277344 19.285156 1.136719 18.832031 C 0.996094 18.378906 0.875 17.910156 0.777344 17.441406 C 0.679688 16.964844 0.609375 16.484375 0.558594 16 C 0.507812 15.503906 0.484375 15.011719 0.484375 14.515625 C 0.484375 14.019531 0.507812 13.527344 0.558594 13.03125 C 0.609375 12.546875 0.679688 12.066406 0.777344 11.589844 C 0.875 11.121094 0.996094 10.65625 1.136719 10.199219 C 1.277344 9.75 1.441406 9.300781 1.625 8.867188 C 1.808594 8.433594 2.011719 8.007812 2.234375 7.597656 C 2.457031 7.1875 2.703125 6.785156 2.964844 6.398438 C 3.222656 6.015625 3.503906 5.640625 3.796875 5.28125 C 4.09375 4.925781 4.410156 4.578125 4.734375 4.25 C 5.0625 3.925781 5.410156 3.609375 5.765625 3.316406 C 6.125 3.019531 6.5 2.738281 6.882812 2.480469 C 7.269531 2.21875 7.671875 1.972656 8.082031 1.753906 C 8.492188 1.527344 8.917969 1.324219 9.347656 1.140625 C 9.785156 0.957031 10.234375 0.792969 10.683594 0.652344 C 11.140625 0.511719 11.605469 0.390625 12.074219 0.296875 C 12.550781 0.199219 13.03125 0.125 13.515625 0.0742188 C 14.011719 0.0234375 14.503906 0 15 0 C 15.496094 0 15.992188 0.0234375 16.484375 0.0742188 C 16.96875 0.125 17.449219 0.199219 17.925781 0.292969 C 18.394531 0.390625 18.859375 0.511719 19.316406 0.652344 C 19.765625 0.792969 20.214844 0.957031 20.648438 1.140625 C 21.082031 1.324219 21.507812 1.527344 21.917969 1.753906 C 22.328125 1.972656 22.730469 2.21875 23.117188 2.480469 C 23.5 2.738281 23.875 3.019531 24.234375 3.316406 C 24.589844 3.609375 24.9375 3.925781 25.265625 4.25 C 25.589844 4.578125 25.90625 4.925781 26.203125 5.28125 C 26.496094 5.640625 26.777344 6.015625 27.035156 6.398438 C 27.296875 6.785156 27.542969 7.1875 27.765625 7.597656 C 27.988281 8.007812 28.191406 8.433594 28.375 8.867188 C 28.558594 9.300781 28.722656 9.75 28.863281 10.199219 C 29.003906 10.65625 29.125 11.121094 29.222656 11.589844 C 29.320312 12.066406 29.390625 12.546875 29.441406 13.03125 C 29.492188 13.527344 29.515625 14.019531 29.515625 14.515625 C 29.515625 15.097656 29.480469 15.675781 29.414062 16.253906 C 29.347656 16.816406 29.246094 17.375 29.113281 17.929688 C 28.980469 18.472656 28.820312 19.007812 28.625 19.53125 C 28.433594 20.050781 28.214844 20.558594 27.964844 21.050781 C 27.46875 22.03125 26.871094 22.945312 26.167969 23.789062 C 25.46875 24.628906 24.6875 25.382812 23.816406 26.046875 L 23.816406 14.5625 C 23.816406 14.550781 23.816406 14.535156 23.816406 14.523438 C 23.816406 13.925781 23.757812 13.332031 23.636719 12.75 C 23.523438 12.179688 23.351562 11.628906 23.125 11.097656 C 22.902344 10.570312 22.632812 10.074219 22.3125 9.601562 C 21.996094 9.132812 21.636719 8.699219 21.234375 8.296875 C 20.835938 7.898438 20.398438 7.539062 19.929688 7.222656 C 19.457031 6.90625 18.957031 6.632812 18.433594 6.414062 C 17.898438 6.1875 17.347656 6.015625 16.777344 5.898438 C 16.191406 5.78125 15.601562 5.722656 15 5.722656 C 14.410156 5.722656 13.824219 5.777344 13.246094 5.894531 C 12.683594 6.007812 12.140625 6.175781 11.609375 6.394531 C 11.089844 6.613281 10.59375 6.875 10.125 7.1875 C 9.660156 7.496094 9.226562 7.847656 8.828125 8.238281 C 8.429688 8.628906 8.070312 9.050781 7.753906 9.511719 C 7.429688 9.972656 7.15625 10.460938 6.929688 10.972656 C 6.699219 11.496094 6.523438 12.035156 6.398438 12.59375 C 6.269531 13.164062 6.199219 13.746094 6.1875 14.332031 C 6.1875 14.351562 6.183594 14.367188 6.183594 14.382812 C 6.183594 14.390625 6.183594 14.398438 6.183594 14.40625 L 6.183594 14.410156 C 6.183594 14.417969 6.183594 14.425781 6.183594 14.4375 C 6.183594 14.429688 6.183594 14.425781 6.183594 14.417969 L 6.183594 14.414062 C 6.183594 14.410156 6.183594 14.40625 6.183594 14.40625 L 6.183594 14.417969 C 6.183594 14.453125 6.183594 14.488281 6.183594 14.523438 C 6.183594 15.117188 6.242188 15.710938 6.363281 16.292969 C 6.480469 16.859375 6.648438 17.410156 6.875 17.945312 C 7.097656 18.46875 7.371094 18.964844 7.6875 19.4375 C 8.007812 19.902344 8.363281 20.335938 8.765625 20.738281 C 9.167969 21.136719 9.601562 21.492188 10.070312 21.808594 C 10.542969 22.128906 11.042969 22.398438 11.566406 22.621094 C 12.101562 22.847656 12.65625 23.015625 13.222656 23.132812 C 13.808594 23.25 14.402344 23.3125 15 23.3125 C 15.804688 23.3125 16.59375 23.203125 17.367188 22.992188 C 18.113281 22.785156 18.824219 22.484375 19.492188 22.085938 L 19.492188 28.324219 C 18.03125 28.796875 16.535156 29.035156 15 29.03125 Z M 15 19.003906 C 14.695312 19.003906 14.394531 18.972656 14.09375 18.914062 C 13.804688 18.855469 13.523438 18.765625 13.253906 18.652344 C 12.984375 18.539062 12.730469 18.402344 12.488281 18.238281 C 12.25 18.078125 12.027344 17.894531 11.824219 17.691406 C 11.621094 17.488281 11.4375 17.265625 11.277344 17.027344 C 11.113281 16.789062 10.976562 16.535156 10.863281 16.265625 C 10.746094 15.996094 10.660156 15.714844 10.601562 15.425781 C 10.539062 15.128906 10.507812 14.828125 10.507812 14.523438 C 10.507812 14.21875 10.539062 13.917969 10.601562 13.617188 C 10.660156 13.328125 10.746094 13.050781 10.863281 12.777344 C 10.976562 12.511719 11.113281 12.257812 11.277344 12.015625 C 11.4375 11.777344 11.621094 11.554688 11.824219 11.351562 C 12.027344 11.148438 12.25 10.964844 12.488281 10.804688 C 12.730469 10.644531 12.984375 10.503906 13.253906 10.390625 C 13.523438 10.277344 13.804688 10.191406 14.09375 10.132812 C 14.394531 10.070312 14.695312 10.039062 15 10.039062 C 15.304688 10.039062 15.605469 10.070312 15.90625 10.132812 C 16.195312 10.191406 16.476562 10.277344 16.75 10.390625 C 17.015625 10.503906 17.269531 10.644531 17.511719 10.804688 C 17.75 10.964844 17.972656 11.148438 18.175781 11.351562 C 18.378906 11.554688 18.5625 11.777344 18.722656 12.015625 C 18.886719 12.257812 19.023438 12.511719 19.136719 12.777344 C 19.253906 13.050781 19.339844 13.328125 19.398438 13.617188 C 19.460938 13.917969 19.492188 14.21875 19.492188 14.523438 L 19.492188 14.570312 C 19.488281 14.871094 19.453125 15.167969 19.390625 15.464844 C 19.328125 15.75 19.242188 16.027344 19.125 16.296875 C 19.011719 16.5625 18.871094 16.8125 18.707031 17.050781 C 18.546875 17.285156 18.363281 17.503906 18.160156 17.707031 C 17.957031 17.910156 17.734375 18.089844 17.496094 18.25 C 17.257812 18.410156 17.003906 18.542969 16.738281 18.65625 C 16.46875 18.769531 16.1875 18.855469 15.898438 18.914062 C 15.601562 18.976562 15.304688 19.003906 15 19.003906 Z M 15 19.003906 "/>
</g>
</g>
</svg>
